<svg width="230" height="52" viewBox="0 0 230 52" fill="none" xmlns="http://www.w3.org/2000/svg">
<path d="M67.7248 0H3.27521C1.46636 0 0 1.438 0 3.21186V48.7881C0 50.562 1.46636 52 3.27521 52H67.7248C69.5336 52 71 50.562 71 48.7881V3.21186C71 1.438 69.5336 0 67.7248 0Z" fill="#545776"/>
<path d="M47.4053 35.8379C46.356 35.8368 45.3079 35.7681 44.2677 35.6323C43.296 35.5166 42.3457 35.2679 41.4445 34.8936C40.6572 34.5763 39.9652 34.0679 39.4335 33.4161C38.9058 32.7081 38.64 31.8448 38.6802 30.9687V9.72546H44.176V19.9071L43.1214 18.1727C43.5977 17.6412 44.1883 17.22 44.8507 16.9393C45.5342 16.6375 46.2539 16.4216 46.9927 16.2969C47.5891 16.1866 48.1938 16.1243 48.8006 16.1106C51.6085 16.1106 53.7461 16.9414 55.2134 18.603C56.6807 20.2646 57.4144 22.6928 57.4144 25.8875C57.4595 27.4933 57.2041 29.0935 56.6611 30.609C56.228 31.7845 55.5058 32.837 54.5584 33.6731C53.638 34.4429 52.5587 35.0082 51.3945 35.3304C50.0963 35.6853 48.7529 35.8562 47.4053 35.8379ZM47.3333 31.2642C48.2522 31.3082 49.1638 31.0847 49.9535 30.6218C50.6045 30.1885 51.0979 29.563 51.3618 28.836C51.6631 27.9944 51.8095 27.107 51.7941 26.2151C51.8421 25.0693 51.6504 23.926 51.2308 22.8555C50.9304 22.1063 50.3902 21.4729 49.6914 21.0505C49.002 20.6716 48.2216 20.4808 47.4315 20.498C46.8765 20.5027 46.3234 20.563 45.7808 20.6779C45.2132 20.7905 44.6673 20.9899 44.1629 21.2689V29.5362C44.1494 29.7268 44.1794 29.918 44.2508 30.0958C44.3222 30.2736 44.4332 30.4336 44.5756 30.564C44.9039 30.8377 45.2988 31.0235 45.7219 31.1036C46.2509 31.2185 46.7915 31.2745 47.3333 31.2706V31.2642Z" fill="white"/>
<path d="M13.9459 35.2855V10.6826H24.027C28.2935 10.6826 31.4289 11.7233 33.4334 13.8045C35.4378 15.8858 36.44 18.9478 36.44 22.9905C36.44 27.0246 35.4378 30.0801 33.4334 32.1571C31.4289 34.2341 28.2935 35.2726 24.027 35.2726L13.9459 35.2855ZM20.0378 30.6797H23.313C25.5707 30.6797 27.2825 30.0651 28.4485 28.8361C29.6145 27.6027 30.1975 25.6627 30.1975 23.0033C30.1975 20.3439 29.6145 18.3397 28.4485 17.1192C27.2825 15.8987 25.5729 15.282 23.313 15.282H20.0378V30.6797Z" fill="white"/>
<path d="M34.1277 40.6491V42.2614H13.5921V40.6362L34.1277 40.6491Z" fill="white"/>
<path d="M54.6632 40.6491V42.2614H34.1276V40.6362L54.6632 40.6491Z" fill="white"/>
<path d="M92.1406 38.4355C92.2904 37.2116 91.6361 36.3132 90.1777 35.7402L88.3125 35.0664L87.707 34.8223C85.8581 34.0345 85.002 32.8724 85.1387 31.3359C85.1973 30.5807 85.4642 29.9167 85.9395 29.3438C86.4147 28.7708 87.0397 28.3314 87.8145 28.0254C88.5957 27.7129 89.4225 27.5664 90.2949 27.5859C91.1348 27.6055 91.8835 27.8008 92.541 28.1719C93.2051 28.5365 93.6999 29.0378 94.0254 29.6758C94.3574 30.3138 94.4876 31.0332 94.416 31.834H93.2148C93.306 30.8704 93.0781 30.099 92.5312 29.5195C91.9909 28.9401 91.2259 28.6374 90.2363 28.6113C89.2077 28.5983 88.3255 28.8359 87.5898 29.3242C86.8607 29.806 86.444 30.4668 86.3398 31.3066C86.2552 31.9772 86.4505 32.5501 86.9258 33.0254C87.4076 33.4941 88.2409 33.9043 89.4258 34.2559C90.9362 34.7376 91.9844 35.3138 92.5703 35.9844C93.1628 36.6549 93.4199 37.4622 93.3418 38.4062C93.2702 39.1875 92.9967 39.8678 92.5215 40.4473C92.0462 41.0202 91.4115 41.4596 90.6172 41.7656C89.8229 42.0716 88.9701 42.2148 88.0586 42.1953C87.1536 42.1888 86.3366 42.0033 85.6074 41.6387C84.8848 41.2741 84.3411 40.776 83.9766 40.1445C83.6185 39.5065 83.4753 38.7708 83.5469 37.9375H84.7383C84.6406 38.9271 84.9043 39.7148 85.5293 40.3008C86.1608 40.8802 87.0234 41.1764 88.1172 41.1895C89.2109 41.2025 90.1289 40.9551 90.8711 40.4473C91.6198 39.9395 92.043 39.2689 92.1406 38.4355ZM96.3496 42H95.1777L97.0234 31.4336H98.1855L96.3496 42ZM97.3457 28.377C97.3783 27.9538 97.6582 27.6868 98.1855 27.5762C98.4395 27.6217 98.6185 27.7031 98.7227 27.8203C98.8333 27.931 98.9049 28.1165 98.9375 28.377C98.8724 28.6243 98.778 28.8066 98.6543 28.9238C98.5306 29.0345 98.3451 29.1159 98.0977 29.168C97.5703 29.0898 97.3197 28.8262 97.3457 28.377ZM102.453 31.4336L102.102 33.2402C102.57 32.5892 103.111 32.0911 103.723 31.7461C104.341 31.3945 105.002 31.2253 105.705 31.2383C106.721 31.2643 107.46 31.6191 107.922 32.3027C108.384 32.9863 108.547 33.9271 108.41 35.125L107.258 42H106.105L107.258 35.1055C107.297 34.7344 107.303 34.3763 107.277 34.0312C107.167 32.8724 106.535 32.2767 105.383 32.2441C104.699 32.2311 104.061 32.4362 103.469 32.8594C102.876 33.276 102.355 33.9076 101.906 34.7539L100.656 42H99.5039L101.34 31.4336H102.453ZM114.357 28.7285L113.889 31.4336H116.008L115.842 32.3906H113.723L112.551 39.4414L112.531 40.0469C112.531 40.7565 112.857 41.1211 113.508 41.1406C113.71 41.1471 114.025 41.1243 114.455 41.0723L114.406 42.0293C114.022 42.14 113.632 42.1888 113.234 42.1758C112.551 42.1628 112.053 41.9251 111.74 41.4629C111.428 40.9941 111.314 40.3171 111.398 39.4316L112.561 32.3906H110.666L110.842 31.4336H112.717L113.195 28.7285H114.357ZM123.166 42C123.133 41.7526 123.124 41.5052 123.137 41.2578L123.225 40.5254C122.736 41.0527 122.176 41.4661 121.545 41.7656C120.92 42.0651 120.243 42.2083 119.514 42.1953C118.622 42.1823 117.896 41.9023 117.336 41.3555C116.783 40.8021 116.535 40.1087 116.594 39.2754C116.646 38.5788 116.883 37.9766 117.307 37.4688C117.736 36.9544 118.345 36.5573 119.133 36.2773C119.921 35.9909 120.803 35.8477 121.779 35.8477L123.938 35.8574L124.113 34.6465C124.191 33.9238 124.035 33.3444 123.645 32.9082C123.254 32.472 122.678 32.2409 121.916 32.2148C121.148 32.2018 120.477 32.3939 119.904 32.791C119.338 33.1816 118.983 33.6992 118.84 34.3438H117.697C117.827 33.4193 118.303 32.6673 119.123 32.0879C119.943 31.502 120.913 31.2155 122.033 31.2285C123.12 31.2546 123.957 31.5833 124.543 32.2148C125.135 32.8464 125.376 33.6667 125.266 34.6758L124.387 39.9883L124.309 40.8379C124.289 41.1895 124.315 41.5378 124.387 41.8828L124.367 42H123.166ZM119.709 41.1699C120.425 41.196 121.109 41.0267 121.76 40.6621C122.417 40.291 122.961 39.7669 123.391 39.0898L123.791 36.7559L121.926 36.7461C120.741 36.7461 119.774 36.9577 119.025 37.3809C118.277 37.7975 117.863 38.3965 117.785 39.1777C117.727 39.7507 117.876 40.2227 118.234 40.5938C118.599 40.9648 119.09 41.1569 119.709 41.1699ZM131.633 36.2188H127.072L127.248 35.2324H131.809L131.633 36.2188ZM139.406 39.2461C139.51 38.3477 138.964 37.6966 137.766 37.293L136.086 36.7949C134.543 36.2741 133.814 35.4049 133.898 34.1875C133.944 33.3086 134.348 32.5957 135.109 32.0488C135.878 31.4954 136.789 31.2253 137.844 31.2383C138.879 31.2513 139.719 31.5443 140.363 32.1172C141.008 32.6836 141.307 33.4421 141.262 34.3926H140.109C140.148 33.7611 139.95 33.2467 139.514 32.8496C139.084 32.4525 138.511 32.2474 137.795 32.2344C137.053 32.2344 136.428 32.4102 135.92 32.7617C135.412 33.1068 135.126 33.5658 135.061 34.1387C134.963 34.9785 135.477 35.5677 136.604 35.9062L137.824 36.2578L138.479 36.4824C139.95 37.0358 140.643 37.9375 140.559 39.1875C140.507 40.0339 140.139 40.7305 139.455 41.2773C138.778 41.8177 137.902 42.1204 136.828 42.1855L136.428 42.1953C135.718 42.1823 135.077 42.0456 134.504 41.7852C133.931 41.5182 133.492 41.1471 133.186 40.6719C132.88 40.1966 132.746 39.6497 132.785 39.0312L133.947 39.041C133.947 39.7051 134.172 40.2292 134.621 40.6133C135.07 40.9974 135.689 41.196 136.477 41.209C137.258 41.209 137.922 41.0332 138.469 40.6816C139.016 40.3236 139.328 39.8451 139.406 39.2461ZM146.838 42.1953C145.992 42.1823 145.259 41.9479 144.641 41.4922C144.022 41.0299 143.566 40.4049 143.273 39.6172C142.987 38.8229 142.886 37.9668 142.971 37.0488L143 36.7168C143.091 35.7402 143.381 34.8125 143.869 33.9336C144.357 33.0482 144.976 32.3743 145.725 31.9121C146.473 31.4434 147.274 31.2188 148.127 31.2383C148.915 31.2513 149.579 31.4661 150.119 31.8828C150.666 32.2995 151.063 32.8789 151.311 33.6211C151.558 34.3633 151.636 35.1836 151.545 36.082L151.467 36.7949H144.152L144.123 37.0293C144.025 37.7389 144.077 38.4193 144.279 39.0703C144.481 39.7148 144.81 40.2292 145.266 40.6133C145.728 40.9909 146.281 41.1862 146.926 41.1992C147.551 41.2188 148.114 41.0983 148.615 40.8379C149.117 40.5775 149.579 40.2292 150.002 39.793L150.686 40.3496C150.21 40.9616 149.644 41.4271 148.986 41.7461C148.335 42.0586 147.619 42.2083 146.838 42.1953ZM148.068 32.2344C147.222 32.2018 146.464 32.5013 145.793 33.1328C145.122 33.7643 144.618 34.653 144.279 35.7988L150.412 35.8086L150.441 35.6621C150.559 34.7376 150.396 33.9434 149.953 33.2793C149.51 32.6087 148.882 32.2604 148.068 32.2344ZM161.779 42.1953C160.933 42.1823 160.201 41.9479 159.582 41.4922C158.964 41.0299 158.508 40.4049 158.215 39.6172C157.928 38.8229 157.827 37.9668 157.912 37.0488L157.941 36.7168C158.033 35.7402 158.322 34.8125 158.811 33.9336C159.299 33.0482 159.917 32.3743 160.666 31.9121C161.415 31.4434 162.215 31.2188 163.068 31.2383C163.856 31.2513 164.52 31.4661 165.061 31.8828C165.607 32.2995 166.005 32.8789 166.252 33.6211C166.499 34.3633 166.577 35.1836 166.486 36.082L166.408 36.7949H159.094L159.064 37.0293C158.967 37.7389 159.019 38.4193 159.221 39.0703C159.423 39.7148 159.751 40.2292 160.207 40.6133C160.669 40.9909 161.223 41.1862 161.867 41.1992C162.492 41.2188 163.055 41.0983 163.557 40.8379C164.058 40.5775 164.52 40.2292 164.943 39.793L165.627 40.3496C165.152 40.9616 164.585 41.4271 163.928 41.7461C163.277 42.0586 162.561 42.2083 161.779 42.1953ZM163.01 32.2344C162.163 32.2018 161.405 32.5013 160.734 33.1328C160.064 33.7643 159.559 34.653 159.221 35.7988L165.354 35.8086L165.383 35.6621C165.5 34.7376 165.337 33.9434 164.895 33.2793C164.452 32.6087 163.824 32.2604 163.01 32.2344ZM170.607 31.4336L170.275 33.1523C171.226 31.8503 172.421 31.2122 173.859 31.2383C174.602 31.2513 175.217 31.4368 175.705 31.7949C176.2 32.153 176.506 32.651 176.623 33.2891C177.105 32.6315 177.665 32.1237 178.303 31.7656C178.947 31.401 179.647 31.2253 180.402 31.2383C181.405 31.2578 182.147 31.5898 182.629 32.2344C183.117 32.8724 183.319 33.7578 183.234 34.8906L183.215 35.1152L182.053 42H180.891L182.043 35.0957C182.082 34.7116 182.085 34.347 182.053 34.002C181.923 32.8496 181.265 32.2637 180.08 32.2441C179.286 32.2311 178.553 32.4915 177.883 33.0254C177.219 33.5527 176.802 34.2135 176.633 35.0078L175.422 42H174.26L175.432 35.0078C175.62 33.2109 174.96 32.2897 173.449 32.2441C172.701 32.2311 172.004 32.4655 171.359 32.9473C170.715 33.429 170.282 34.028 170.061 34.7441L168.811 42H167.648L169.484 31.4336H170.607ZM193.928 41.2188C194.696 41.2448 195.373 41.0332 195.959 40.584C196.551 40.1283 196.945 39.5163 197.141 38.748H198.244C198.049 39.7962 197.535 40.6426 196.701 41.2871C195.874 41.9251 194.93 42.2311 193.869 42.2051C193.016 42.1855 192.3 41.9512 191.721 41.502C191.141 41.0527 190.721 40.431 190.461 39.6367C190.207 38.8424 190.126 37.9473 190.217 36.9512L190.256 36.5312C190.334 35.8477 190.5 35.1836 190.754 34.5391C191.014 33.8945 191.359 33.3249 191.789 32.8301C192.219 32.3288 192.73 31.9349 193.322 31.6484C193.921 31.3555 194.595 31.2188 195.344 31.2383C196.424 31.2643 197.284 31.6289 197.922 32.332C198.56 33.0352 198.859 33.9271 198.82 35.0078L197.717 34.998C197.73 34.1842 197.518 33.5267 197.082 33.0254C196.646 32.5241 196.05 32.2604 195.295 32.2344C194.488 32.2083 193.775 32.4427 193.156 32.9375C192.538 33.4323 192.072 34.1322 191.76 35.0371C191.447 35.9421 191.301 36.9023 191.32 37.918C191.34 38.9661 191.574 39.7734 192.023 40.3398C192.473 40.8997 193.107 41.1927 193.928 41.2188ZM206.506 42C206.473 41.7526 206.464 41.5052 206.477 41.2578L206.564 40.5254C206.076 41.0527 205.516 41.4661 204.885 41.7656C204.26 42.0651 203.583 42.2083 202.854 42.1953C201.962 42.1823 201.236 41.9023 200.676 41.3555C200.122 40.8021 199.875 40.1087 199.934 39.2754C199.986 38.5788 200.223 37.9766 200.646 37.4688C201.076 36.9544 201.685 36.5573 202.473 36.2773C203.26 35.9909 204.143 35.8477 205.119 35.8477L207.277 35.8574L207.453 34.6465C207.531 33.9238 207.375 33.3444 206.984 32.9082C206.594 32.472 206.018 32.2409 205.256 32.2148C204.488 32.2018 203.817 32.3939 203.244 32.791C202.678 33.1816 202.323 33.6992 202.18 34.3438H201.037C201.167 33.4193 201.643 32.6673 202.463 32.0879C203.283 31.502 204.253 31.2155 205.373 31.2285C206.46 31.2546 207.297 31.5833 207.883 32.2148C208.475 32.8464 208.716 33.6667 208.605 34.6758L207.727 39.9883L207.648 40.8379C207.629 41.1895 207.655 41.5378 207.727 41.8828L207.707 42H206.506ZM203.049 41.1699C203.765 41.196 204.449 41.0267 205.1 40.6621C205.757 40.291 206.301 39.7669 206.73 39.0898L207.131 36.7559L205.266 36.7461C204.081 36.7461 203.114 36.9577 202.365 37.3809C201.617 37.7975 201.203 38.3965 201.125 39.1777C201.066 39.7507 201.216 40.2227 201.574 40.5938C201.939 40.9648 202.43 41.1569 203.049 41.1699ZM217.102 39.2461C217.206 38.3477 216.659 37.6966 215.461 37.293L213.781 36.7949C212.238 36.2741 211.509 35.4049 211.594 34.1875C211.639 33.3086 212.043 32.5957 212.805 32.0488C213.573 31.4954 214.484 31.2253 215.539 31.2383C216.574 31.2513 217.414 31.5443 218.059 32.1172C218.703 32.6836 219.003 33.4421 218.957 34.3926H217.805C217.844 33.7611 217.645 33.2467 217.209 32.8496C216.779 32.4525 216.206 32.2474 215.49 32.2344C214.748 32.2344 214.123 32.4102 213.615 32.7617C213.107 33.1068 212.821 33.5658 212.756 34.1387C212.658 34.9785 213.173 35.5677 214.299 35.9062L215.52 36.2578L216.174 36.4824C217.645 37.0358 218.339 37.9375 218.254 39.1875C218.202 40.0339 217.834 40.7305 217.15 41.2773C216.473 41.8177 215.598 42.1204 214.523 42.1855L214.123 42.1953C213.413 42.1823 212.772 42.0456 212.199 41.7852C211.626 41.5182 211.187 41.1471 210.881 40.6719C210.575 40.1966 210.441 39.6497 210.48 39.0312L211.643 39.041C211.643 39.7051 211.867 40.2292 212.316 40.6133C212.766 40.9974 213.384 41.196 214.172 41.209C214.953 41.209 215.617 41.0332 216.164 40.6816C216.711 40.3236 217.023 39.8451 217.102 39.2461ZM226.916 42C226.883 41.7526 226.874 41.5052 226.887 41.2578L226.975 40.5254C226.486 41.0527 225.926 41.4661 225.295 41.7656C224.67 42.0651 223.993 42.2083 223.264 42.1953C222.372 42.1823 221.646 41.9023 221.086 41.3555C220.533 40.8021 220.285 40.1087 220.344 39.2754C220.396 38.5788 220.633 37.9766 221.057 37.4688C221.486 36.9544 222.095 36.5573 222.883 36.2773C223.671 35.9909 224.553 35.8477 225.529 35.8477L227.688 35.8574L227.863 34.6465C227.941 33.9238 227.785 33.3444 227.395 32.9082C227.004 32.472 226.428 32.2409 225.666 32.2148C224.898 32.2018 224.227 32.3939 223.654 32.791C223.088 33.1816 222.733 33.6992 222.59 34.3438H221.447C221.577 33.4193 222.053 32.6673 222.873 32.0879C223.693 31.502 224.663 31.2155 225.783 31.2285C226.87 31.2546 227.707 31.5833 228.293 32.2148C228.885 32.8464 229.126 33.6667 229.016 34.6758L228.137 39.9883L228.059 40.8379C228.039 41.1895 228.065 41.5378 228.137 41.8828L228.117 42H226.916ZM223.459 41.1699C224.175 41.196 224.859 41.0267 225.51 40.6621C226.167 40.291 226.711 39.7669 227.141 39.0898L227.541 36.7559L225.676 36.7461C224.491 36.7461 223.524 36.9577 222.775 37.3809C222.027 37.7975 221.613 38.3965 221.535 39.1777C221.477 39.7507 221.626 40.2227 221.984 40.5938C222.349 40.9648 222.84 41.1569 223.459 41.1699Z" fill="#545776"/>
</svg>
